<svg xmlns="http://www.w3.org/2000/svg" data-name="Layer 1" viewBox="0 0 24 24"><path d="m20.57,14.76l-1.87-1.87c-.57-.57-1.37-.87-2.17-.8-.81.07-1.54.48-2.01,1.14-.17.24-.43.39-.73.42-.3.03-.59-.06-.81-.26-.82-.75-1.62-1.54-2.37-2.37-.2-.22-.29-.51-.26-.81.03-.3.18-.56.42-.73.66-.47,1.08-1.2,1.14-2.01.07-.81-.22-1.6-.8-2.17l-1.87-1.87c-1.07-1.07-2.82-1.07-3.89,0l-1.32,1.32c-1.6,1.6-1.84,4.14-.57,6.03,2.59,3.87,5.87,7.15,9.74,9.75.81.54,1.74.81,2.67.81,1.23,0,2.45-.47,3.36-1.38l1.13-1.13c.6-.59.94-1.33.98-2.08.03-.75-.24-1.47-.78-2Zm-1.25,3.02l-1.13,1.13c-1.1,1.1-2.84,1.26-4.14.39-3.71-2.49-6.85-5.63-9.33-9.33-.87-1.3-.71-3.04.39-4.14l1.32-1.32c.24-.24.56-.37.88-.37s.64.12.88.37l1.87,1.87c.26.26.39.62.36.99-.03.37-.22.7-.52.91h0c-.59.42-.97,1.07-1.04,1.79-.08.72.16,1.44.64,1.98.78.86,1.61,1.69,2.47,2.47.54.49,1.25.72,1.98.64.72-.08,1.37-.46,1.79-1.04.21-.3.55-.49.91-.52.36-.02.73.1.99.36l1.87,1.87c.52.52.44,1.33-.19,1.96Z"/></svg>