<svg xmlns="http://www.w3.org/2000/svg" data-name="Layer 1" viewBox="0 0 24 24"><path d="m15.53,8.47c-.29-.29-.77-.29-1.06,0l-2.47,2.47-2.47-2.47c-.29-.29-.77-.29-1.06,0s-.29.77,0,1.06l2.47,2.47-2.47,2.47c-.29.29-.29.77,0,1.06.15.15.34.22.53.22s.38-.07.53-.22l2.47-2.47,2.47,2.47c.15.15.34.22.53.22s.38-.07.53-.22c.29-.29.29-.77,0-1.06l-2.47-2.47,2.47-2.47c.29-.29.29-.77,0-1.06Z"/><path d="m12,2.25C6.62,2.25,2.25,6.62,2.25,12s4.37,9.75,9.75,9.75,9.75-4.37,9.75-9.75S17.38,2.25,12,2.25Zm0,18c-4.55,0-8.25-3.7-8.25-8.25S7.45,3.75,12,3.75s8.25,3.7,8.25,8.25-3.7,8.25-8.25,8.25Z"/></svg>