<svg width="24" height="24" viewBox="0 0 24 24" fill="none" xmlns="http://www.w3.org/2000/svg">
<path d="M18.5937 5.40614C18.052 4.86462 17.1554 4.86462 16.6137 5.40614L12 10.0183L7.38626 5.40614C6.84456 4.86462 5.94797 4.86462 5.40627 5.40614C4.86458 5.94765 4.86458 6.84395 5.40627 7.38546L10.02 11.9977L5.40627 16.6099C4.86458 17.1514 4.86458 18.0477 5.40627 18.5892C5.68646 18.8693 6.04136 19 6.39626 19C6.75117 19 7.10607 18.8693 7.38626 18.5892L12 13.977L16.6137 18.5892C16.8939 18.8693 17.2488 19 17.6037 19C17.9586 19 18.3135 18.8693 18.5937 18.5892C19.1354 18.0477 19.1354 17.1514 18.5937 16.6099L13.98 11.9977L18.5937 7.38546C19.1354 6.84395 19.1354 5.94765 18.5937 5.40614Z" fill="black"/>
</svg>
