<svg xmlns="http://www.w3.org/2000/svg" viewBox="0 0 48 48"><g transform="translate(-464 -54)"><path style="-inkscape-stroke:none" d="m 488,58.5 c -10.7577,0 -19.5,8.742303 -19.5,19.5 0,10.757697 8.7423,19.5 19.5,19.5 10.7577,0 19.5,-8.742303 19.5,-19.5 0,-10.757697 -8.7423,-19.5 -19.5,-19.5 z m 0,2 c 9.67682,0 17.5,7.823182 17.5,17.5 0,9.676818 -7.82318,17.5 -17.5,17.5 -9.67682,0 -17.5,-7.823182 -17.5,-17.5 0,-9.676818 7.82318,-17.5 17.5,-17.5 z" color="#000"/><path style="-inkscape-stroke:none" d="M 488,59.5 A 18.5,18.5 0 0 0 469.5,78 18.5,18.5 0 0 0 488,96.5 Z" color="#000"/><path style="-inkscape-stroke:none" d="M488 58.5c-10.7577 0-19.5 8.742303-19.5 19.5 0 10.757697 8.7423 19.5 19.5 19.5a1.0001 1.0001 0 001-1v-37a1.0001 1.0001 0 00-1-1zm-1 2.101562V95.398437C477.79983 94.871087 470.5 87.334057 470.5 78c0-9.334057 7.29983-16.871087 16.5-17.398438zM492.87891 64.634766a1 1 0 00-.54493.537109 1 1 0 00.53125 1.310547c1.49474.632219 2.84107 1.548096 3.97266 2.679687C499.10107 71.425292 500.5 74.542302 500.5 78a1 1 0 001 1 1 1 0 001-1c0-3.998138-1.62324-7.631054-4.24609-10.253906-1.31143-1.311424-2.87388-2.371415-4.60938-3.105469a1 1 0 00-.76562-.0059z" color="#000"/></g></svg>