<svg xmlns="http://www.w3.org/2000/svg" viewBox="0 0 48 48"><g transform="translate(-294 -276)"><path style="-inkscape-stroke:none" d="m 318,284 c -8.8247,0 -16,7.1753 -16,16 0,8.8247 7.1753,16 16,16 8.8247,0 16,-7.1753 16,-16 0,-8.8247 -7.1753,-16 -16,-16 z m 0,2 c 7.74382,0 14,6.25618 14,14 0,7.74382 -6.25618,14 -14,14 -7.74382,0 -14,-6.25618 -14,-14 0,-7.74382 6.25618,-14 14,-14 z" color="#000"/><path style="-inkscape-stroke:none" d="m 546.5,56 a 1,1 0 0 0 -1,1 v 3 a 1,1 0 0 0 1,1 1,1 0 0 0 1,-1 v -3 a 1,1 0 0 0 -1,-1 z m -14.84961,6.150391 a 1,1 0 0 0 -0.70703,0.292968 1,1 0 0 0 0,1.414063 l 2.12109,2.121094 a 1,1 0 0 0 1.41407,0 1,1 0 0 0 0,-1.414063 l -2.1211,-2.121094 a 1,1 0 0 0 -0.70703,-0.292968 z m 29.69922,0 a 1,1 0 0 0 -0.70703,0.292968 l -2.1211,2.121094 a 1,1 0 0 0 0,1.414063 1,1 0 0 0 1.41407,0 l 2.12109,-2.121094 a 1,1 0 0 0 0,-1.414063 1,1 0 0 0 -0.70703,-0.292968 z M 525.5,77 a 1,1 0 0 0 -1,1 1,1 0 0 0 1,1 h 3 a 1,1 0 0 0 1,-1 1,1 0 0 0 -1,-1 z m 39,0 a 1,1 0 0 0 -1,1 1,1 0 0 0 1,1 h 3 a 1,1 0 0 0 1,-1 1,1 0 0 0 -1,-1 z m -30.72852,12.728516 a 1,1 0 0 0 -0.70703,0.292968 l -2.12109,2.121094 a 1,1 0 0 0 0,1.414063 1,1 0 0 0 1.41406,0 l 2.1211,-2.121094 a 1,1 0 0 0 0,-1.414063 1,1 0 0 0 -0.70704,-0.292968 z m 25.45704,0 a 1,1 0 0 0 -0.70704,0.292968 1,1 0 0 0 0,1.414063 l 2.1211,2.121094 a 1,1 0 0 0 1.41406,0 1,1 0 0 0 0,-1.414063 l -2.12109,-2.121094 a 1,1 0 0 0 -0.70703,-0.292968 z M 546.5,95 a 1,1 0 0 0 -1,1 v 3 a 1,1 0 0 0 1,1 1,1 0 0 0 1,-1 v -3 a 1,1 0 0 0 -1,-1 z" color="#000" transform="translate(-228.5 222)"/><path style="-inkscape-stroke:none" d="m 318,285 a 15,15 0 0 0 -15,15 15,15 0 0 0 15,15 z" color="#000"/><path style="-inkscape-stroke:none" d="m 318,284 c -8.8247,0 -16,7.1753 -16,16 0,8.8247 7.1753,16 16,16 a 1.0001,1.0001 0 0 0 1,-1 v -30 a 1.0001,1.0001 0 0 0 -1,-1 z m -1,2.09961 v 27.80078 C 309.73367,313.38007 304,307.4011 304,300 c 0,-7.4011 5.73367,-13.38007 13,-13.90039 z" color="#000"/></g></svg>