<svg xmlns="http://www.w3.org/2000/svg" data-name="Layer 1" viewBox="0 0 24 24"><path d="m12,20.42c-.6,0-1.17-.23-1.59-.66l-6.02-6.02c-2.2-2.2-2.44-5.73-.54-8.02,1.07-1.3,2.58-2.06,4.25-2.14,1.4-.07,2.8.38,3.9,1.24,1.1-.86,2.48-1.31,3.9-1.24,1.67.08,3.18.84,4.25,2.14,1.9,2.3,1.66,5.82-.54,8.02l-6.02,6.02c-.42.42-.99.66-1.59.66Zm-3.62-15.34c-.07,0-.14,0-.21,0-1.24.06-2.37.62-3.17,1.59-1.41,1.71-1.21,4.35.45,6.01l6.02,6.02c.28.28.78.28,1.06,0l6.02-6.02c1.66-1.66,1.86-4.3.45-6.01-.8-.97-1.92-1.53-3.17-1.59-1.23-.06-2.43.41-3.29,1.27-.29.29-.77.29-1.06,0-.82-.82-1.93-1.28-3.09-1.28Z"/></svg>