<svg xmlns="http://www.w3.org/2000/svg" data-name="Layer 1" viewBox="0 0 24 24"><path d="m9.53,7.53l1.72-1.72v9.19c0,.41.34.75.75.75s.75-.34.75-.75V5.81l1.72,1.72c.15.15.34.22.53.22s.38-.07.53-.22c.29-.29.29-.77,0-1.06l-3-3c-.29-.29-.77-.29-1.06,0l-3,3c-.29.29-.29.77,0,1.06s.77.29,1.06,0Z"/><path d="m20,14.25c-.41,0-.75.34-.75.75v3c0,.69-.56,1.25-1.25,1.25H6c-.69,0-1.25-.56-1.25-1.25v-3c0-.41-.34-.75-.75-.75s-.75.34-.75.75v3c0,1.52,1.23,2.75,2.75,2.75h12c1.52,0,2.75-1.23,2.75-2.75v-3c0-.41-.34-.75-.75-.75Z"/></svg>