<svg width="512" height="512" viewBox="0 0 512 512" fill="none" xmlns="http://www.w3.org/2000/svg">
<g clip-path="url(#clip0_214_10)">
<mask id="mask0_214_10" style="mask-type:luminance" maskUnits="userSpaceOnUse" x="0" y="0" width="512" height="512">
<path d="M399.36 0H112.64C50.4306 0 0 50.4306 0 112.64V399.36C0 461.569 50.4306 512 112.64 512H399.36C461.569 512 512 461.569 512 399.36V112.64C512 50.4306 461.569 0 399.36 0Z" fill="white"/>
</mask>
<g mask="url(#mask0_214_10)">
<g filter="url(#filter0_i_214_10)">
<path d="M399.36 -0.00012207H112.64C50.4306 -0.00012207 0 50.4305 0 112.64V399.36C0 461.569 50.4306 512 112.64 512H399.36C461.569 512 512 461.569 512 399.36V112.64C512 50.4305 461.569 -0.00012207 399.36 -0.00012207Z" fill="#6F6F6F"/>
<path d="M399.36 -0.00012207H112.64C50.4306 -0.00012207 0 50.4305 0 112.64V399.36C0 461.569 50.4306 512 112.64 512H399.36C461.569 512 512 461.569 512 399.36V112.64C512 50.4305 461.569 -0.00012207 399.36 -0.00012207Z" fill="black"/>
</g>
<path d="M231.676 350.774C236.785 349.575 240.753 349.936 245.516 352.702C263.583 363.161 282.627 370.286 302.529 374.464C322.887 378.736 342.695 378.181 362.228 374.853C375.953 372.499 389.407 369.088 401.823 363.045C409.022 359.542 416.481 356.311 423.041 351.804C434.793 343.735 447.056 336.345 457.017 325.758C474.132 307.583 486.44 286.482 492.302 261.022C499.41 230.131 494.448 199.56 482.855 168.652C474.361 145.973 462.66 125.193 448.712 105.39C375.695 1.71674 302.677 -101.957 229.691 -205.633C227.476 -208.778 225.377 -212.023 222.199 -216.776C237.416 -216.649 250.815 -217.129 264.25 -216.257C277.479 -215.39 290.849 -214.057 303.986 -211.273C325.454 -206.725 346.484 -199.79 366.979 -190.267C390.222 -179.467 411.915 -165.763 432.052 -149.356C446.456 -137.621 460.117 -124.702 473.288 -111.42C483.908 -100.723 492.963 -88.3962 502.758 -76.8731C519.794 -56.8271 533.452 -34.497 549.032 -13.4829C557.132 -2.56078 564.954 8.59416 572.541 19.8961C580.651 31.9639 588.855 44.0216 596.06 56.6124C611.337 83.263 624.151 110.968 633.513 140.008C644.156 173.059 649.501 206.534 648.902 240.19C648.253 277.169 640.055 311.738 626.048 344.464C612.804 375.407 594.524 402.452 572.394 426.559C564.963 434.646 556.128 441.341 548.454 449.203C536.441 461.499 521.626 469.987 507.925 479.958C493.221 490.673 476.805 498.475 460.048 505.553C439.11 514.424 417.377 521.323 394.683 525.366C380.969 527.807 366.962 529.132 353.117 531.099C347.95 531.829 344.393 529.837 341.104 525.143C305.084 473.784 268.954 422.484 232.764 371.245C227.782 364.172 226.565 357.604 231.678 350.753L231.676 350.774Z" fill="url(#paint0_radial_214_10)"/>
<path d="M291.213 735.1C268.343 733.958 247.002 735.358 225.117 729.982C216.998 727.989 208.769 727.179 200.698 724.886C176.062 717.889 152.36 707.624 129.235 694.23C109.73 682.952 91.7454 669.422 74.6054 654.46C62.5251 643.911 51.4138 632.014 40.1548 620.391C14.9877 594.424 -3.71512 563.39 -24.7648 534.219C-38.0767 515.78 -50.8867 496.968 -64.1334 478.483C-77.5881 459.726 -88.0642 439.518 -98.3858 419.069C-107.142 401.742 -113.727 383.896 -119.614 365.863C-130.085 333.772 -134.947 301.519 -134.91 268.995C-134.877 237.064 -129.329 207.055 -119.099 178.89C-113.012 162.113 -104.655 146.366 -95.8386 131.247C-88.3664 118.445 -79.3629 106.64 -69.9779 95.4226C-59.6903 83.1319 -48.716 71.4237 -35.8516 61.8682C-27.1564 55.4204 -19.2249 47.9114 -10.3273 41.7971C5.62564 30.8088 23.0502 22.3252 40.8581 14.4092C64.0792 4.08962 88.8546 -1.89896 114.266 -6.10774C125.537 -7.97347 137.256 -8.21201 148.75 -9.30108C151.741 -9.57986 154.095 -8.59186 155.98 -5.73099C157.093 -4.05877 158.303 -2.45543 159.459 -0.813832C195.095 49.783 230.731 100.38 266.323 151.008C268.402 153.96 270.376 157.177 271.589 160.492C273.133 164.717 272.943 168.81 269.325 171.339C266.01 173.674 262.469 173.864 258.357 171.373C246.127 163.937 233.397 158.168 220.351 153.267C201.492 146.161 182.713 143.185 163.644 143.308C139.973 143.454 118.094 148.984 97.6566 158.199C82.2978 165.114 68.1114 174.039 55.9221 186.146C43.174 198.799 32.2523 212.66 24.8799 229.713C15.2502 252.011 12.1338 276.1 15.9677 302.299C19.2691 324.857 27.2495 346.346 36.9017 367.439C40.1714 374.598 44.6146 381.369 48.9011 388.078C93.5444 457.975 143.573 524.136 190.734 592.298C221.575 636.848 253.065 680.96 284.274 725.27C286.344 728.21 288.423 731.162 291.22 735.133L291.213 735.1Z" fill="url(#paint1_radial_214_10)"/>
</g>
</g>
<defs>
<filter id="filter0_i_214_10" x="0" y="-0.00012207" width="512" height="522" filterUnits="userSpaceOnUse" color-interpolation-filters="sRGB">
<feFlood flood-opacity="0" result="BackgroundImageFix"/>
<feBlend mode="normal" in="SourceGraphic" in2="BackgroundImageFix" result="shape"/>
<feColorMatrix in="SourceAlpha" type="matrix" values="0 0 0 0 0 0 0 0 0 0 0 0 0 0 0 0 0 0 127 0" result="hardAlpha"/>
<feOffset dy="10"/>
<feGaussianBlur stdDeviation="20"/>
<feComposite in2="hardAlpha" operator="arithmetic" k2="-1" k3="1"/>
<feColorMatrix type="matrix" values="0 0 0 0 0 0 0 0 0 0 0 0 0 0 0 0 0 0 0.25 0"/>
<feBlend mode="normal" in2="shape" result="effect1_innerShadow_214_10"/>
</filter>
<radialGradient id="paint0_radial_214_10" cx="0" cy="0" r="1" gradientUnits="userSpaceOnUse" gradientTransform="translate(245.5 420) rotate(-50.5583) scale(635.14 415.497)">
<stop offset="0.298133" stop-color="#FF005D"/>
<stop offset="0.579626" stop-color="#FF90FE"/>
<stop offset="0.710102" stop-color="white"/>
</radialGradient>
<radialGradient id="paint1_radial_214_10" cx="0" cy="0" r="1" gradientUnits="userSpaceOnUse" gradientTransform="translate(148.807 382.572) rotate(56.6216) scale(422.042 261.571)">
<stop stop-color="#4BECE9"/>
<stop offset="0.535" stop-color="#93DEFE"/>
<stop offset="1" stop-color="#8875FF"/>
</radialGradient>
<clipPath id="clip0_214_10">
<rect width="512" height="512" fill="white"/>
</clipPath>
</defs>
</svg>
