<svg width="512" height="512" viewBox="0 0 512 512" fill="none" xmlns="http://www.w3.org/2000/svg">
<g clip-path="url(#clip0_501_2)">
<mask id="mask0_501_2" style="mask-type:luminance" maskUnits="userSpaceOnUse" x="0" y="0" width="512" height="512">
<path d="M399.36 0H112.64C50.4306 0 0 50.4306 0 112.64V399.36C0 461.569 50.4306 512 112.64 512H399.36C461.569 512 512 461.569 512 399.36V112.64C512 50.4306 461.569 0 399.36 0Z" fill="white"/>
</mask>
<g mask="url(#mask0_501_2)">
<g filter="url(#filter0_i_501_2)">
<path d="M399.36 0H112.64C50.4306 0 0 50.4306 0 112.64V399.36C0 461.569 50.4306 512 112.64 512H399.36C461.569 512 512 461.569 512 399.36V112.64C512 50.4306 461.569 0 399.36 0Z" fill="#6F6F6F"/>
<path d="M399.36 0H112.64C50.4306 0 0 50.4306 0 112.64V399.36C0 461.569 50.4306 512 112.64 512H399.36C461.569 512 512 461.569 512 399.36V112.64C512 50.4306 461.569 0 399.36 0Z" fill="black"/>
</g>
<path d="M231.676 340.774C236.785 339.575 240.753 339.936 245.516 342.702C263.583 353.161 282.627 360.286 302.529 364.464C322.887 368.736 342.695 368.181 362.228 364.853C375.953 362.499 389.407 359.088 401.823 353.045C409.022 349.542 416.481 346.311 423.041 341.804C434.793 333.735 447.056 326.345 457.017 315.758C474.132 297.583 486.44 276.482 492.302 251.022C499.41 220.131 494.448 189.56 482.855 158.652C474.361 135.973 462.66 115.193 448.712 95.3899C375.695 -8.28326 302.677 -111.957 229.691 -215.633C227.476 -218.778 225.377 -222.023 222.199 -226.776C237.416 -226.649 250.815 -227.129 264.25 -226.257C277.479 -225.39 290.849 -224.057 303.986 -221.273C325.454 -216.725 346.484 -209.79 366.979 -200.267C390.222 -189.467 411.915 -175.763 432.052 -159.356C446.456 -147.621 460.117 -134.702 473.288 -121.42C483.908 -110.723 492.963 -98.3962 502.758 -86.8731C519.794 -66.8271 533.452 -44.497 549.032 -23.4829C557.132 -12.5608 564.954 -1.40584 572.541 9.89613C580.651 21.9639 588.855 34.0216 596.06 46.6124C611.337 73.263 624.151 100.968 633.513 130.008C644.156 163.059 649.501 196.534 648.902 230.19C648.253 267.169 640.055 301.738 626.048 334.464C612.804 365.407 594.524 392.452 572.394 416.559C564.963 424.646 556.128 431.341 548.454 439.203C536.441 451.499 521.626 459.987 507.925 469.958C493.221 480.673 543.257 490.922 526.5 498C505.562 506.871 549.194 511.1 526.5 515.143C512.786 517.584 366.962 519.132 353.117 521.099C347.95 521.829 344.393 519.837 341.104 515.143C305.084 463.784 268.954 412.484 232.764 361.245C227.782 354.172 226.565 347.604 231.678 340.753L231.676 340.774Z" fill="url(#paint0_radial_501_2)"/>
<path d="M291.214 735.1C268.344 733.958 247.003 735.358 225.118 729.982C216.999 727.989 208.77 727.179 200.699 724.886C176.063 717.889 152.36 707.624 129.235 694.23C109.73 682.952 91.7458 669.422 74.6058 654.46C62.5255 643.911 51.4142 632.014 40.1552 620.391C14.9881 594.424 -3.7147 563.39 -24.7644 534.219C-38.0763 515.78 -50.8863 496.968 -64.133 478.483C-77.5877 459.726 -88.0638 439.518 -98.3854 419.069C-107.142 401.742 -113.726 383.896 -119.613 365.863C-130.084 333.772 -134.947 301.519 -134.91 268.995C-134.877 237.064 -129.329 207.055 -119.099 178.89C-113.012 162.113 -104.655 146.366 -95.8382 131.247C-88.366 118.445 -79.3625 106.64 -69.9775 95.4227C-59.6899 83.132 -48.7156 71.4238 -35.8512 61.8683C-27.156 55.4205 -518.897 -3.18682 -510 -9.30112C-494.047 -20.2894 23.0506 22.3253 40.8585 14.4093C64.0796 4.08967 88.855 -1.89891 114.266 -6.10769C125.537 -7.97342 137.256 -8.21196 148.75 -9.30103C151.741 -9.57981 154.095 -8.59181 155.98 -5.73094C157.093 -4.05872 158.303 -2.45538 159.459 -0.813784C195.095 49.7831 230.732 100.38 266.324 151.008C268.403 153.96 270.377 157.177 271.59 160.492C273.134 164.717 272.944 168.81 269.326 171.339C266.011 173.674 262.47 173.864 258.358 171.373C246.128 163.937 233.398 158.168 220.352 153.267C201.493 146.161 182.713 143.185 163.644 143.308C139.973 143.454 118.094 148.984 97.657 158.199C82.2982 165.114 68.1119 174.039 55.9226 186.146C43.1745 198.799 32.2526 212.66 24.8802 229.713C15.2505 252.011 12.1341 276.1 15.968 302.299C19.2694 324.857 27.2499 346.346 36.9021 367.439C40.1718 374.598 44.615 381.369 48.9015 388.078C93.5448 457.975 143.573 524.136 190.734 592.298C221.575 636.848 253.066 680.96 284.275 725.27C286.345 728.21 288.424 731.162 291.221 735.133L291.214 735.1Z" fill="url(#paint1_radial_501_2)"/>
</g>
</g>
<defs>
<filter id="filter0_i_501_2" x="0" y="0" width="512" height="522" filterUnits="userSpaceOnUse" color-interpolation-filters="sRGB">
<feFlood flood-opacity="0" result="BackgroundImageFix"/>
<feBlend mode="normal" in="SourceGraphic" in2="BackgroundImageFix" result="shape"/>
<feColorMatrix in="SourceAlpha" type="matrix" values="0 0 0 0 0 0 0 0 0 0 0 0 0 0 0 0 0 0 127 0" result="hardAlpha"/>
<feOffset dy="10"/>
<feGaussianBlur stdDeviation="20"/>
<feComposite in2="hardAlpha" operator="arithmetic" k2="-1" k3="1"/>
<feColorMatrix type="matrix" values="0 0 0 0 0 0 0 0 0 0 0 0 0 0 0 0 0 0 0.25 0"/>
<feBlend mode="normal" in2="shape" result="effect1_innerShadow_501_2"/>
</filter>
<radialGradient id="paint0_radial_501_2" cx="0" cy="0" r="1" gradientUnits="userSpaceOnUse" gradientTransform="translate(245.5 410) rotate(-50.5583) scale(635.14 415.497)">
<stop offset="0.16601" stop-color="#0A61BD"/>
<stop offset="0.570921" stop-color="#519DEC"/>
<stop offset="0.703834" stop-color="white"/>
</radialGradient>
<radialGradient id="paint1_radial_501_2" cx="0" cy="0" r="1" gradientUnits="userSpaceOnUse" gradientTransform="translate(148.808 382.572) rotate(56.6216) scale(422.042 261.571)">
<stop stop-color="#0A61BD"/>
<stop offset="0.535" stop-color="#0A61BD"/>
<stop offset="1" stop-color="#F7F9FA"/>
</radialGradient>
<clipPath id="clip0_501_2">
<rect width="512" height="512" fill="white"/>
</clipPath>
</defs>
</svg>
