<svg width="484" height="90" viewBox="0 0 484 90" fill="none" xmlns="http://www.w3.org/2000/svg">
<path d="M416.25 89.6V0H434.362V35.328H465.082V0H483.13V89.6H465.082V53.44H434.362V89.6H416.25ZM421.242 84.736H429.434V48.384H470.074V84.736H478.266V4.8H470.074V40.128H429.434V4.8H421.242V84.736Z" fill="url(#paint0_linear_332_6)"/>
<path d="M345.419 89.6L332.235 76.416V60.288H350.347V67.584L354.251 71.488H378.827L382.731 67.584V57.728L378.827 53.824H345.803L332.619 40.64V13.184L345.803 0H386.443L399.627 13.184V29.312H381.515V22.016L377.611 18.112H354.635L350.667 22.016V31.808L354.635 35.712H387.659L400.843 48.896V76.416L387.659 89.6H345.419ZM347.723 84.672H385.035L395.723 73.984V50.688L385.675 40.576H352.331L345.803 34.112V19.584L352.267 13.184H380.235L386.443 19.264V24.768H394.635V15.296L384.267 4.928H348.235L337.547 15.616V38.016L348.363 48.896H381.643L387.467 54.528V70.016L381.003 76.48H351.755L345.611 70.336V64.832H337.355V74.304L347.723 84.672Z" fill="url(#paint1_linear_332_6)"/>
<path d="M259.235 89.6V0H317.475V18.112H277.347V35.328H313.059V53.44H277.347V71.488H317.475V89.6H259.235ZM264.291 84.48H313.123V76.288H272.547V48.448H308.643V40.256H272.547V13.056H313.123V4.8H264.291V84.48Z" fill="url(#paint2_linear_332_6)"/>
<path d="M176.125 89.6V0H231.357L244.541 13.184V40.96L236.733 48.128L244.541 56.64V89.6H226.429V63.04L220.029 56.64H194.237V89.6H176.125ZM181.117 84.736H189.309V51.456H222.141L231.485 61.248V84.736H239.741V58.56L229.693 47.616L239.485 39.04V15.552L228.797 4.864H181.117V84.736ZM194.237 38.528H222.525L226.429 34.56V22.016L222.525 18.112H194.237V38.528ZM189.309 43.2V13.056H224.765L231.229 19.52V36.288L223.357 43.2H189.309Z" fill="url(#paint3_linear_332_6)"/>
<path d="M93.1099 89.6V13.184L106.294 0H147.638L160.822 13.184V89.6H142.774V63.232H111.158V89.6H93.1099ZM98.2299 84.288H106.422V58.432H147.702V84.288H155.958V15.36L145.206 4.672H108.918L98.2299 15.36V84.288ZM111.158 45.184H142.774V22.016L138.87 18.112H115.062L111.158 22.016V45.184ZM106.422 50.176V19.328L112.886 12.864H141.238L147.702 19.328V50.176H106.422Z" fill="url(#paint4_linear_332_6)"/>
<path d="M4.928 84.8H13.12V13.312H24.256L47.232 84.672H72.896V4.8H64.704V76.288H53.504L30.656 4.992H4.928V84.8ZM0 89.6V0H34.752L56.896 71.232H59.648V0H77.76V89.6H43.008L20.736 18.176H18.112V89.6H0Z" fill="url(#paint5_linear_332_6)"/>
<defs>
<linearGradient id="paint0_linear_332_6" x1="448.781" y1="-47.5" x2="360.66" y2="-8.17294" gradientUnits="userSpaceOnUse">
<stop offset="0.0301143" stop-color="#4BECE9"/>
<stop offset="0.415" stop-color="#FF005D"/>
<stop offset="1" stop-color="white"/>
</linearGradient>
<linearGradient id="paint1_linear_332_6" x1="365.607" y1="-47.5" x2="275.988" y2="-6.47114" gradientUnits="userSpaceOnUse">
<stop offset="0.0301143" stop-color="#4BECE9"/>
<stop offset="0.415" stop-color="#FF005D"/>
<stop offset="1" stop-color="white"/>
</linearGradient>
<linearGradient id="paint2_linear_332_6" x1="287.563" y1="-47.5" x2="207.617" y2="-16.4305" gradientUnits="userSpaceOnUse">
<stop offset="0.0301143" stop-color="#4BECE9"/>
<stop offset="0.415" stop-color="#FF005D"/>
<stop offset="1" stop-color="white"/>
</linearGradient>
<linearGradient id="paint3_linear_332_6" x1="209.403" y1="-47.5" x2="119.949" y2="-6.66093" gradientUnits="userSpaceOnUse">
<stop offset="0.0301143" stop-color="#4BECE9"/>
<stop offset="0.415" stop-color="#FF005D"/>
<stop offset="1" stop-color="white"/>
</linearGradient>
<linearGradient id="paint4_linear_332_6" x1="126.046" y1="-47.5" x2="37.1978" y2="-7.35531" gradientUnits="userSpaceOnUse">
<stop offset="0.0301143" stop-color="#4BECE9"/>
<stop offset="0.415" stop-color="#FF005D"/>
<stop offset="1" stop-color="white"/>
</linearGradient>
<linearGradient id="paint5_linear_332_6" x1="37.8234" y1="-47.5" x2="-58.9768" y2="2.72819" gradientUnits="userSpaceOnUse">
<stop offset="0.0301143" stop-color="#4BECE9"/>
<stop offset="0.415" stop-color="#FF005D"/>
<stop offset="1" stop-color="white"/>
</linearGradient>
</defs>
</svg>
