<svg xmlns="http://www.w3.org/2000/svg" fill="none" viewBox="0 0 24 24"><path stroke="#fff" stroke-linecap="round" stroke-linejoin="round" stroke-width="1.5" d="M12.416 8.10628H11.8099C6.41551 8.10628 3.16971 14.0874 6.10964 18.6102C6.61143 19.3821 7.81106 18.9164 7.66056 18.0081L7.50854 17.0906C7.10042 14.6275 9.00032 12.3869 11.497 12.3869H12.3223C12.7866 12.3869 13.1912 12.7033 13.3032 13.1539L13.6939 14.7257C13.8938 15.5303 14.9241 15.7651 15.453 15.1267L18.9618 10.8914C19.2717 10.5174 19.2717 9.97583 18.9618 9.60181L15.453 5.36651C14.9241 4.72807 13.8938 4.96293 13.6939 5.76752L13.2806 7.43024C13.1819 7.82743 12.8253 8.10628 12.416 8.10628Z"/></svg>