<svg xmlns="http://www.w3.org/2000/svg" enable-background="new 0 0 100 100" viewBox="0 0 100 100"><path d="M84.412,57.941c-2.924,0-5.294,2.37-5.294,5.294v9.546c0,4.581,0,7.608-0.576,8.738c-0.504,0.989-1.327,1.812-2.318,2.316
		c-1.13,0.576-4.156,0.576-8.737,0.576H27.219c-4.583,0-7.611,0-8.742-0.576c-1.001-0.51-1.8-1.31-2.312-2.315
		c-0.577-1.132-0.577-4.165-0.577-8.755V32.531c0-4.592,0-7.626,0.577-8.759c0.51-1.002,1.31-1.802,2.312-2.312
		c1.132-0.577,4.166-0.577,8.758-0.577h9.529c2.924,0,5.294-2.37,5.294-5.294c0-2.924-2.37-5.294-5.294-5.294h-9.529
		c-6.557,0-10.168,0-13.565,1.731c-3.008,1.533-5.407,3.932-6.94,6.94C5,22.362,5,25.974,5,32.531v40.235
		C5,79.32,5,82.93,6.731,86.328c1.534,3.011,3.934,5.411,6.939,6.942C17.066,95,20.672,95,27.219,95h40.268
		c6.544,0,10.149,0,13.543-1.73c3.011-1.534,5.413-3.935,6.945-6.944c1.73-3.395,1.73-7,1.73-13.545v-9.546
		C89.706,60.312,87.335,57.941,84.412,57.941z"/><path d="M94.988,9.938c0-0.001,0-0.002,0-0.003c0-0.003,0-0.006-0.001-0.009c-0.038-0.548-0.159-1.073-0.35-1.562
		c-0.255-0.651-0.643-1.262-1.165-1.791c-0.001-0.001-0.002-0.003-0.004-0.004c-0.003-0.003-0.005-0.005-0.008-0.008
		c-0.003-0.003-0.006-0.006-0.009-0.009c-0.001-0.001-0.001-0.001-0.002-0.002c0,0,0,0,0,0c-0.004-0.004-0.008-0.008-0.012-0.012
		c-0.002-0.001-0.003-0.003-0.005-0.005c-0.002-0.002-0.005-0.004-0.007-0.007c-0.002-0.002-0.005-0.005-0.007-0.007
		c-0.001-0.001-0.003-0.003-0.004-0.004c-0.003-0.003-0.006-0.006-0.009-0.009c0-0.001-0.001-0.001-0.002-0.002
		c-0.483-0.472-1.035-0.833-1.622-1.083c0,0-0.001-0.001-0.002-0.001c-0.003-0.001-0.005-0.002-0.008-0.003
		C91.137,5.149,90.439,5,89.706,5H63.235c-2.924,0-5.294,2.37-5.294,5.294s2.37,5.294,5.294,5.294h13.689L48.903,43.61
		c-2.067,2.067-2.067,5.419,0,7.487c1.034,1.034,2.389,1.551,3.744,1.551c1.355,0,2.71-0.517,3.744-1.551l28.021-28.021v13.69
		c0,2.924,2.37,5.294,5.294,5.294S95,39.689,95,36.765V10.332C95.001,10.201,94.997,10.069,94.988,9.938z"/></svg>