<svg xmlns="http://www.w3.org/2000/svg" fill="none" viewBox="0 0 40 40"><path fill="#000" d="M18.8215 2.15482C19.4724 1.50395 20.5276 1.50395 21.1785 2.15482L27.8452 8.82149C28.4961 9.47236 28.4961 10.5276 27.8452 11.1785C27.1943 11.8294 26.139 11.8294 25.4882 11.1785L21.6667 7.35702V25C21.6667 25.9205 20.9205 26.6667 20 26.6667C19.0795 26.6667 18.3333 25.9205 18.3333 25V7.35702L14.5118 11.1785C13.861 11.8294 12.8057 11.8294 12.1548 11.1785C11.5039 10.5276 11.5039 9.47236 12.1548 8.82149L18.8215 2.15482Z"/><path fill="#000" d="M10 18.3333C9.07953 18.3333 8.33333 19.0795 8.33333 20V33.3333C8.33333 33.7754 8.50893 34.1993 8.82149 34.5118C9.13405 34.8244 9.55797 35 10 35H30C30.442 35 30.8659 34.8244 31.1785 34.5118C31.4911 34.1993 31.6667 33.7754 31.6667 33.3333V20C31.6667 19.0795 30.9205 18.3333 30 18.3333H27.5C26.5795 18.3333 25.8333 17.5871 25.8333 16.6667C25.8333 15.7462 26.5795 15 27.5 15H30C32.7614 15 35 17.2386 35 20V33.3333C35 34.6594 34.4732 35.9312 33.5355 36.8689C32.5979 37.8065 31.3261 38.3333 30 38.3333H10C8.67392 38.3333 7.40215 37.8065 6.46447 36.8689C5.52678 35.9312 5 34.6594 5 33.3333V20C5 17.2386 7.23858 15 10 15H13.3333C14.2538 15 15 15.7462 15 16.6667C15 17.5871 14.2538 18.3333 13.3333 18.3333H10Z"/></svg>